# xmcd
#
# Track frame offsets:
#	150
#	16015
#	31825
#	52025
#	77062
#	90092
#	115157
#	129750
#	146835
#	159082
#	177795
#	196615
#	217265
#
# Disc length: 3253 seconds
#
# Revision: 0
# Processed by: cddbd v1.5.2PL0 Copyright (c) Steve Scherf et al.
# Submitted via: audiograbber 1.83.01
#
DISCID=970cb30d
DTITLE=Sister Whiskey - Sister Whiskey
DYEAR=1993
DGENRE=Country
TTITLE0=Simple Man
TTITLE1=Can You Satisfy Me
TTITLE2=Moonshine
TTITLE3=Keep Waiting
TTITLE4=I´d Lie To You For Your Love
TTITLE5=Excuse Me
TTITLE6=Count Me In
TTITLE7=Sleeping Your Life Away
TTITLE8=Ain´t Bout Love
TTITLE9=Edge Of The Night
TTITLE10=Cryin´ Inside
TTITLE11=Don´t Cha Know Ya Need It
TTITLE12=Open Your Heart
EXTD=
EXTT0=
EXTT1=
EXTT2=
EXTT3=
EXTT4=
EXTT5=
EXTT6=
EXTT7=
EXTT8=
EXTT9=
EXTT10=
EXTT11=
EXTT12=
PLAYORDER=
